<?xml version="1.0" standalone="no"?>
<!DOCTYPE svg PUBLIC "-//W3C//DTD SVG 20010904//EN"
 "http://www.w3.org/TR/2001/REC-SVG-20010904/DTD/svg10.dtd">
<svg version="1.0" xmlns="http://www.w3.org/2000/svg"
 width="256.000000pt" height="256.000000pt" viewBox="0 0 256.000000 256.000000"
 preserveAspectRatio="xMidYMid meet">
<metadata>
Created by potrace 1.14, written by Peter Selinger 2001-2017
</metadata>
<g transform="translate(0.000000,256.000000) scale(0.100000,-0.100000)"
fill="#000000" stroke="none">
<path d="M2021 2028 c-42 -7 -106 -40 -146 -75 -102 -90 -176 -251 -246 -534
l-11 -47 -244 0 -244 -1 0 285 0 284 53 26 c81 38 72 54 -32 55 -47 1 -113 2
-146 3 -271 7 -473 -90 -561 -270 -42 -87 -37 -235 10 -282 30 -31 55 -33 89
-10 46 33 50 50 31 140 -19 98 -14 153 21 208 48 77 139 114 306 126 l87 7 -3
-414 c-4 -440 -5 -464 -35 -603 -36 -162 -89 -247 -184 -292 -54 -25 -126 -27
-165 -3 -13 8 -36 39 -52 71 -31 60 -54 74 -113 62 -59 -11 -80 -62 -52 -128
57 -136 262 -156 438 -43 199 128 299 346 307 670 l1 27 240 0 241 0 -6 -77
c-24 -318 17 -566 107 -650 28 -27 89 -53 121 -53 43 0 124 30 161 59 34 27
116 140 116 160 0 5 -7 15 -16 22 -14 11 -18 10 -26 -6 -6 -11 -39 -48 -74
-83 -59 -61 -64 -63 -100 -58 -47 8 -60 19 -88 75 -53 106 -66 213 -61 486 5
293 20 416 71 577 19 61 35 89 68 123 36 39 48 45 83 45 28 0 50 -8 79 -30 21
-16 48 -30 60 -30 20 0 73 40 75 57 0 4 2 17 4 27 4 21 -18 71 -37 82 -22 14
-83 20 -127 12z"/>
</g>
</svg>
